<svg width="700" height="700" viewBox="0 0 700 700" fill="none" xmlns="http://www.w3.org/2000/svg">
<rect width="700" height="700" rx="133" fill="white"/>
<path d="M541.118 270.588C507.784 291.176 487.196 326.471 487.196 365.686C487.196 409.804 513.667 450 553.863 466.667C546.02 492.157 534.255 515.686 519.549 537.255C497.98 567.647 475.431 599.02 442.098 599.02C408.765 599.02 398.961 579.412 359.745 579.412C321.51 579.412 307.784 600 276.412 600C245.039 600 223.471 571.569 198.961 536.275C166.608 487.255 147.98 430.392 147 370.588C147 273.529 209.745 221.569 272.49 221.569C305.824 221.569 333.275 243.137 353.863 243.137C373.471 243.137 404.843 220.588 442.098 220.588C481.314 219.608 518.569 238.235 541.118 270.588ZM424.451 179.412C441.118 159.804 449.941 135.294 450.922 109.804C450.922 106.863 450.922 102.941 449.941 100C421.51 102.941 395.039 116.667 376.412 138.235C359.745 156.863 349.941 180.392 348.961 205.882C348.961 208.824 348.961 211.765 349.941 214.706C351.902 214.706 354.843 215.686 356.804 215.686C383.275 213.725 407.784 200 424.451 179.412Z" fill="black"/>
</svg>
