<svg width="32" height="32" viewBox="0 0 32 32" fill="none" xmlns="http://www.w3.org/2000/svg">
  <rect width="32" height="32" rx="6" fill="#10B981"/>
  <rect x="6" y="8" width="20" height="16" rx="2" fill="white"/>
  <rect x="8" y="10" width="16" height="12" rx="1" fill="#10B981"/>
  <circle cx="12" cy="14" r="1.5" fill="white"/>
  <circle cx="20" cy="14" r="1.5" fill="white"/>
  <rect x="10" y="17" width="12" height="1" fill="white"/>
  <rect x="10" y="19" width="8" height="1" fill="white"/>
  <path d="M16 6L18 8L16 10L14 8L16 6Z" fill="white"/>
  <path d="M16 22L18 24L16 26L14 24L16 22Z" fill="white"/>
  <path d="M6 16L8 18L10 16L8 14L6 16Z" fill="white"/>
  <path d="M22 16L24 18L26 16L24 14L22 16Z" fill="white"/>
</svg>
