<svg width="32" height="32" viewBox="0 0 32 32" fill="none" xmlns="http://www.w3.org/2000/svg">
  <rect width="32" height="32" rx="6" fill="#10B981"/>
  <path d="M16 8C19.314 8 22 10.686 22 14C22 17.314 19.314 20 16 20C12.686 20 10 17.314 10 14C10 10.686 12.686 8 16 8Z" fill="white"/>
  <path d="M16 10C17.105 10 18 10.895 18 12C18 13.105 17.105 14 16 14C14.895 14 14 13.105 14 12C14 10.895 14.895 10 16 10Z" fill="#10B981"/>
  <path d="M12 16H20V18H12V16Z" fill="white"/>
  <path d="M12 20H20V22H12V20Z" fill="white"/>
</svg> 